<svg t="1743045557680" class="icon" viewBox="0 0 1024 1024" version="1.1" xmlns="http://www.w3.org/2000/svg" p-id="14913" width="256" height="256"><path d="M511.33 960.72c-60.55 0-119.28-11.86-174.58-35.25-53.41-22.59-101.37-54.93-142.56-96.12-41.19-41.19-73.53-89.15-96.12-142.56-23.39-55.29-35.25-114.03-35.25-174.58 0-60.55 11.86-119.28 35.25-174.58 22.59-53.41 54.93-101.37 96.12-142.56 41.19-41.19 89.15-73.53 142.56-96.12C392.04 75.56 450.78 63.7 511.33 63.7c60.55 0 119.28 11.86 174.58 35.25 53.41 22.59 101.37 54.93 142.56 96.12 41.19 41.19 73.53 89.15 96.12 142.56 23.39 55.29 35.25 114.03 35.25 174.58 0 60.55-11.86 119.28-35.25 174.58-22.59 53.41-54.93 101.37-96.12 142.56s-89.15 73.53-142.56 96.12c-55.29 23.39-114.03 35.25-174.58 35.25z m0-896c-246.75 0-447.5 200.75-447.5 447.5s200.75 447.5 447.5 447.5 447.5-200.75 447.5-447.5-200.74-447.5-447.5-447.5z" fill="#CCCCCC" p-id="14914"></path><path d="M909.51 928.99H116.49c-10.58 0-19.19-8.63-19.19-19.23V116.68c0-10.6 8.61-19.23 19.19-19.23h793.02c10.58 0 19.19 8.63 19.19 19.23v793.08c0 10.61-8.61 19.23-19.19 19.23zM116.49 98.85c-9.81 0-17.79 8-17.79 17.83v793.08c0 9.83 7.98 17.83 17.79 17.83h793.02c9.81 0 17.79-8 17.79-17.83V116.68c0-9.83-7.98-17.83-17.79-17.83H116.49z" fill="#CCCCCC" p-id="14915"></path><path d="M909.51 960.43H116.49c-10.76 0-19.19-8.97-19.19-20.42V83.87c0-11.42 8.61-20.7 19.19-20.7h793.02c10.58 0 19.19 9.29 19.19 20.7v856.14c0 11.45-8.43 20.42-19.19 20.42zM116.49 64.57c-9.81 0-17.79 8.66-17.79 19.3v856.14c0 10.67 7.81 19.02 17.79 19.02h793.02c9.97 0 17.79-8.35 17.79-19.02V83.87c0-10.64-7.98-19.3-17.79-19.3H116.49z" fill="#CCCCCC" p-id="14916"></path><path d="M940.35 928.92H84.22c-11.42 0-20.7-8.61-20.7-19.19V116.71c0-10.58 9.29-19.19 20.7-19.19h856.14c11.42 0 20.7 8.61 20.7 19.19v793.02c-0.01 10.58-9.29 19.19-20.71 19.19zM84.22 98.93c-10.64 0-19.3 7.98-19.3 17.79v793.02c0 9.81 8.66 17.79 19.3 17.79h856.14c10.64 0 19.3-7.98 19.3-17.79V116.71c0-9.81-8.66-17.79-19.3-17.79H84.22z" fill="#CCCCCC" p-id="14917"></path><path d="M786.79 960.13H295.4c-80.62 0-146.21-65.59-146.21-146.21V210.39c0-80.62 65.59-146.21 146.21-146.21h491.38c80.62 0 146.21 65.59 146.21 146.21v603.54c0 80.61-65.58 146.2-146.2 146.2zM295.4 128.18c-45.33 0-82.21 36.88-82.21 82.21v603.54c0 45.33 36.88 82.21 82.21 82.21h491.38c45.33 0 82.21-36.88 82.21-82.21V210.39c0-45.33-36.88-82.21-82.21-82.21H295.4z" fill="#CCCCCC" p-id="14918"></path><path d="M238.79 732.08h-116c-17.67 0-32-14.33-32-32s14.33-32 32-32h116c17.67 0 32 14.33 32 32s-14.33 32-32 32zM238.79 333.08h-116c-17.67 0-32-14.33-32-32s14.33-32 32-32h116c17.67 0 32 14.33 32 32s-14.33 32-32 32zM732.12 724.45c-17.67 0-32-14.33-32-32v-360.6c0-17.67 14.33-32 32-32s32 14.33 32 32v360.6c0 17.68-14.33 32-32 32z" fill="#CCCCCC" p-id="14919"></path></svg>