<svg t="1743044743598" class="icon" viewBox="0 0 1024 1024" version="1.1" xmlns="http://www.w3.org/2000/svg" p-id="5314" width="200" height="200"><path d="M640 116.363636h-256A314.647273 314.647273 0 0 0 69.818182 431.010909v162.909091A314.647273 314.647273 0 0 0 384.232727 907.636364h442.181818A128.232727 128.232727 0 0 0 954.181818 779.636364v-349.090909A314.647273 314.647273 0 0 0 640 116.363636zM358.4 578.327273a69.818182 69.818182 0 0 1-61.672727-74.007273 69.818182 69.818182 0 0 1 61.672727-74.24 69.818182 69.818182 0 0 1 61.905455 74.24 69.818182 69.818182 0 0 1-61.905455 74.007273z m314.414545-3.258182a69.818182 69.818182 0 0 1-61.905454-74.007273 69.818182 69.818182 0 0 1 61.905454-74.24 69.818182 69.818182 0 0 1 61.905455 74.24 69.818182 69.818182 0 0 1-61.905455 74.007273z" fill="#CCCCCC" p-id="5315"></path></svg>